<svg width="81" height="116" viewBox="0 0 81 116" fill="none" xmlns="http://www.w3.org/2000/svg">
<path opacity="0.6" d="M80.25 116H0.40625V99.2031L29.0781 70.2188C37.5677 61.5208 43.1146 55.5052 45.7188 52.1719C48.3229 48.7865 50.1979 45.6615 51.3438 42.7969C52.4896 39.9323 53.0625 36.9635 53.0625 33.8906C53.0625 29.3073 51.7865 25.8958 49.2344 23.6562C46.7344 21.4167 43.375 20.2969 39.1562 20.2969C34.7292 20.2969 30.4323 21.3125 26.2656 23.3438C22.099 25.375 17.75 28.2656 13.2188 32.0156L0.09375 16.4688C5.71875 11.6771 10.3802 8.29167 14.0781 6.3125C17.776 4.33333 21.8125 2.82292 26.1875 1.78125C30.5625 0.6875 35.4583 0.140625 40.875 0.140625C48.0104 0.140625 54.3125 1.44271 59.7812 4.04688C65.25 6.65104 69.4948 10.2969 72.5156 14.9844C75.5365 19.6719 77.0469 25.0365 77.0469 31.0781C77.0469 36.3385 76.1094 41.2865 74.2344 45.9219C72.4115 50.5052 69.5469 55.2188 65.6406 60.0625C61.7865 64.9062 54.9635 71.8073 45.1719 80.7656L30.4844 94.5938V95.6875H80.25V116Z" fill="#4176E1"/>
</svg>
