<svg width="80" height="118" viewBox="0 0 80 118" fill="none" xmlns="http://www.w3.org/2000/svg">
<path opacity="0.6" d="M75.7969 27.3281C75.7969 34.4635 73.6354 40.5312 69.3125 45.5312C64.9896 50.5312 58.9219 53.9688 51.1094 55.8438V56.3125C60.3281 57.4583 67.3073 60.2708 72.0469 64.75C76.7865 69.1771 79.1562 75.1667 79.1562 82.7188C79.1562 93.7083 75.1719 102.276 67.2031 108.422C59.2344 114.516 47.8542 117.562 33.0625 117.562C20.6667 117.562 9.67708 115.505 0.09375 111.391V90.8438C4.52083 93.0833 9.39062 94.9062 14.7031 96.3125C20.0156 97.7188 25.276 98.4219 30.4844 98.4219C38.4531 98.4219 44.3385 97.0677 48.1406 94.3594C51.9427 91.651 53.8438 87.3021 53.8438 81.3125C53.8438 75.9479 51.6562 72.1458 47.2812 69.9062C42.9062 67.6667 35.9271 66.5469 26.3438 66.5469H17.6719V48.0312H26.5C35.3542 48.0312 41.8125 46.8854 45.875 44.5938C49.9896 42.25 52.0469 38.2656 52.0469 32.6406C52.0469 23.9948 46.6302 19.6719 35.7969 19.6719C32.0469 19.6719 28.2188 20.2969 24.3125 21.5469C20.4583 22.7969 16.1615 24.9583 11.4219 28.0312L0.25 11.3906C10.6667 3.89062 23.0885 0.140625 37.5156 0.140625C49.3385 0.140625 58.6615 2.53646 65.4844 7.32812C72.3594 12.1198 75.7969 18.7865 75.7969 27.3281Z" fill="#E0E0E0"/>
</svg>
