<svg width="22" height="22" viewBox="0 0 22 22" fill="none" xmlns="http://www.w3.org/2000/svg">
<path d="M21 6.73392V1H15.2551" stroke="#265BC5" stroke-width="2" stroke-linecap="round" stroke-linejoin="round"/>
<path d="M14.2976 7.68957L21 1" stroke="#265BC5" stroke-width="2" stroke-linecap="round" stroke-linejoin="round"/>
<path d="M20.0426 16.214V19.0809C20.0437 19.3471 19.989 19.6105 19.8822 19.8544C19.7754 20.0982 19.6187 20.3172 19.4222 20.4971C19.2257 20.677 18.9937 20.814 18.7411 20.8993C18.4885 20.9845 18.2208 21.0162 17.9553 20.9922C15.0089 20.6727 12.1787 19.6678 9.69216 18.0584C7.37871 16.5911 5.41731 14.6335 3.94725 12.3245C2.32908 9.83136 1.32206 6.99287 1.00777 4.03895C0.983845 3.77468 1.01531 3.50834 1.10017 3.25687C1.18503 3.0054 1.32142 2.77433 1.50065 2.57835C1.67989 2.38238 1.89805 2.2258 2.14123 2.11859C2.38442 2.01138 2.64731 1.95588 2.91317 1.95563H5.78562C6.25029 1.95106 6.70078 2.1153 7.0531 2.41772C7.40543 2.72014 7.63555 3.14011 7.70059 3.59935C7.82183 4.51684 8.04667 5.4177 8.37083 6.28474C8.49965 6.62679 8.52753 6.99853 8.45117 7.35591C8.3748 7.71329 8.19739 8.04133 7.93996 8.30117L6.72396 9.51484C8.08699 11.9074 10.0718 13.8883 12.4689 15.2488L13.6849 14.0351C13.9452 13.7781 14.2739 13.6011 14.6319 13.5249C14.99 13.4486 15.3625 13.4765 15.7052 13.605C16.5739 13.9286 17.4764 14.153 18.3957 14.274C18.8608 14.3395 19.2856 14.5733 19.5892 14.931C19.8929 15.2887 20.0542 15.7453 20.0426 16.214Z" stroke="#265BC5" stroke-width="2" stroke-linecap="round" stroke-linejoin="round"/>
</svg>
