<svg width="80" height="80" viewBox="0 0 80 80" fill="none" xmlns="http://www.w3.org/2000/svg">
<path d="M61.032 25.6774H58.6474C56.6753 25.6774 55.0704 27.2839 55.0704 29.2581V29.4622C53.6826 29.9551 52.6858 31.2823 52.6858 32.8387V34.2364C52.6858 35.1924 53.0578 36.0923 53.7339 36.7691L55.0108 38.0474L53.7255 48.9838C50.2392 43.3503 44.6115 39.2779 38.1016 37.7824L37.5686 36.1806C39.3082 35.6996 40.7354 34.4691 41.4495 32.8387H41.9551C44.5853 32.8387 46.7243 30.6975 46.7243 28.0645V22.0968C48.0394 22.0968 49.1089 21.0262 49.1089 19.7097V17.3226C49.1089 16.0061 48.0394 14.9355 46.7243 14.9355H46.5168C45.377 8.06065 39.5025 3 32.4166 3C25.3308 3 19.4563 8.06065 18.3164 14.9355H18.109C16.7939 14.9355 15.7244 16.0061 15.7244 17.3226V19.7097C15.7244 21.0262 16.7939 22.0968 18.109 22.0968V28.0645C18.109 30.6975 20.248 32.8387 22.8782 32.8387H23.3837C24.0991 34.4691 25.5263 35.7008 27.2647 36.1806L26.7305 37.7836C24.0347 38.4018 21.4653 39.5453 19.194 41.1136L16.8451 33.8126C16.838 33.7733 16.8392 33.7339 16.8308 33.6945C16.2323 31.1797 12.678 29.8644 8.71956 30.7046C6.26222 31.2262 4.20907 32.4663 3.22661 34.0191C2.66503 34.9071 2.48142 35.8524 2.69603 36.7547C2.81884 37.2727 3.0728 37.737 3.42453 38.144L11.5942 50.3934C10.3959 53.1505 9.76283 56.0687 9.76283 59.0968C9.76283 64.1861 12.6768 68.5986 16.9167 70.7768V72.2258C16.9167 74.8588 19.0557 77 21.6859 77H25.2628H28.8397H47.9166V61.3729C49.6526 63.6752 52.3496 65.0645 55.3101 65.0645C60.437 65.0645 64.6089 60.8883 64.6089 55.7572V29.2581C64.6089 27.2839 63.004 25.6774 61.032 25.6774ZM55.0704 32.8387C55.0704 32.1811 55.6046 31.6452 56.2628 31.6452H57.4551V29.2581C57.4551 28.6004 57.9892 28.0645 58.6474 28.0645H61.032C61.6901 28.0645 62.2243 28.6004 62.2243 29.2581V36.4194H56.7564L55.4198 35.0814C55.1944 34.8558 55.0704 34.555 55.0704 34.2364V32.8387ZM35.9936 72.2258V74.6129H32.946C33.3562 73.9075 33.6089 73.0995 33.6089 72.2258H35.9936ZM37.1859 69.8387H30.032V64.3651L31.3686 63.0271C31.5916 62.8051 31.898 62.6774 32.2116 62.6774H33.6089C34.2671 62.6774 34.8012 63.2133 34.8012 63.871V65.0645H37.1859C37.844 65.0645 38.3782 65.6004 38.3782 66.2581V68.6452C38.3782 69.3028 37.844 69.8387 37.1859 69.8387ZM35.1339 36.4194L35.8493 38.5677L32.4166 42.8633L28.9828 38.5666L29.6982 36.4182H35.1339V36.4194ZM28.9947 42.4026C28.9423 42.4014 28.8922 42.3871 28.8397 42.3871H21.6859C21.674 42.3871 21.6632 42.3907 21.6513 42.3907C23.3706 41.3666 25.2401 40.6016 27.192 40.1468L28.9947 42.4026ZM21.6859 44.7742H24.7108C24.303 45.4772 24.0705 46.2924 24.0705 47.1613V48.3548H26.4551V47.1613C26.4551 45.8448 27.5246 44.7742 28.8397 44.7742C30.1548 44.7742 31.2243 45.8448 31.2243 47.1613C31.2243 48.4778 30.1548 49.5484 28.8397 49.5484H21.6859C20.3708 49.5484 19.3013 48.4778 19.3013 47.1613C19.3013 45.8448 20.3708 44.7742 21.6859 44.7742ZM19.3013 51.2719C20.0059 51.6825 20.8131 51.9355 21.6859 51.9355H28.8397C29.7125 51.9355 30.5197 51.6825 31.2243 51.2719V60.4455C30.6496 60.6114 30.1167 60.9038 29.6827 61.3395L28.3461 62.6774H24.0705C22.4013 62.6774 20.769 62.2788 19.3013 61.5495V51.2719ZM35.9936 61.2153C35.3592 60.6448 34.527 60.2903 33.6089 60.2903V47.1613C33.6089 46.5979 33.4933 46.0644 33.3133 45.5619L35.9936 42.2093V61.2153ZM41.9551 30.4516V25.6774C43.2702 25.6774 44.3397 26.748 44.3397 28.0645C44.3397 29.381 43.2702 30.4516 41.9551 30.4516ZM44.3397 23.9539C43.635 23.5434 42.8279 23.2903 41.9551 23.2903V22.0968H44.3397V23.9539ZM44.0965 14.9355H35.9936V5.93374C40.0891 7.20368 43.2309 10.6053 44.0965 14.9355ZM33.6089 5.44677V14.9355H31.2243V5.44677C31.6166 5.40858 32.0136 5.3871 32.4166 5.3871C32.8196 5.3871 33.2167 5.40858 33.6089 5.44677ZM28.8397 5.93374V14.9355H20.7368C21.6024 10.6053 24.7441 7.20368 28.8397 5.93374ZM18.1078 17.3226H46.7243V19.7097H18.109L18.1078 17.3226ZM22.8782 22.0968V23.2903C22.0054 23.2903 21.1982 23.5434 20.4936 23.9539V22.0968H22.8782ZM20.4936 28.0645C20.4936 26.748 21.5631 25.6774 22.8782 25.6774V30.4516C21.5631 30.4516 20.4936 29.381 20.4936 28.0645ZM25.2628 30.4516V22.0968H39.5705V30.4516C39.5705 32.4257 37.9656 34.0323 35.9936 34.0323H28.8397C26.8676 34.0323 25.2628 32.4257 25.2628 30.4516ZM5.24041 35.2974C5.86757 34.3068 7.4271 33.4212 9.21556 33.0404C9.89637 32.896 10.5331 32.8327 11.1125 32.8327C12.7996 32.8327 14.0015 33.3675 14.3926 33.9785L14.5094 34.3414C14.538 34.5861 14.4748 34.8558 14.2852 35.1554C13.6581 36.146 12.0986 37.0316 10.3101 37.4124C7.84918 37.934 5.99037 37.3909 5.30003 36.6616L5.06634 36.3107C5.05203 36.2749 5.02341 36.2415 5.01388 36.2057C4.95188 35.9384 5.02818 35.634 5.24041 35.2974ZM8.45725 39.9988C9.20841 39.9988 9.99891 39.9176 10.8061 39.7458C12.7221 39.3388 14.3854 38.4925 15.4942 37.404L17.7632 44.4567C17.2314 45.2266 16.9167 46.1563 16.9167 47.1613V54.0767L7.49268 39.9475C7.80625 39.9785 8.12699 39.9988 8.45725 39.9988ZM12.1474 59.0968C12.1474 56.9257 12.4992 54.8131 13.1919 52.7925L16.9167 58.3771V59.9179C16.3968 59.4525 15.9104 58.9464 15.4859 58.3806L13.5782 59.8129C16.0415 63.1011 19.9642 65.0645 24.0705 65.0645H27.6474V69.8387H22.8782C16.9608 69.8387 12.1474 65.0192 12.1474 59.0968ZM25.2628 74.6129H21.6859C20.3708 74.6129 19.3013 73.5423 19.3013 72.2258V71.7174C20.4399 72.0408 21.637 72.2258 22.8782 72.2258H31.2243C31.2243 73.5423 30.1548 74.6129 28.8397 74.6129H25.2628ZM55.3101 62.6774C52.6751 62.6774 50.306 61.2117 49.1268 58.8521L47.9166 56.428V51.9355H45.532V74.6129H38.3782V72.0062C39.7624 71.5121 40.7628 70.1992 40.7628 68.6452V66.2581C40.7628 64.7041 39.7624 63.3912 38.3782 62.897V40.3151C44.844 42.0577 50.2655 46.6266 53.0555 52.7698L53.2355 53.1648L52.6954 57.7648L55.0633 58.0429L57.3227 38.8065H62.2243V55.7572C62.2243 59.573 59.1219 62.6774 55.3101 62.6774Z" fill="#EE1F23"/>
</svg>
