<svg width="78" height="56" viewBox="0 0 78 56" fill="none" xmlns="http://www.w3.org/2000/svg">
<path d="M18.1989 40.2739C13.9237 40.2739 10.447 43.7506 10.447 48.0258C10.447 52.3011 13.9237 55.7778 18.1989 55.7778C22.4742 55.7778 25.9509 52.3011 25.9509 48.0258C25.9509 43.7506 22.474 40.2739 18.1989 40.2739ZM18.1989 53.1937C15.3487 53.1937 13.031 50.8759 13.031 48.0258C13.031 45.1757 15.3489 42.858 18.1989 42.858C21.049 42.858 23.3668 45.1758 23.3668 48.0258C23.3668 50.8759 21.049 53.1937 18.1989 53.1937Z" fill="#EE1F23"/>
<path d="M62.1266 40.2739C57.8513 40.2739 54.3746 43.7506 54.3746 48.0258C54.3746 52.3011 57.8513 55.7778 62.1266 55.7778C66.4018 55.7778 69.8785 52.3011 69.8785 48.0258C69.8785 43.7506 66.4018 40.2739 62.1266 40.2739ZM62.1266 53.1937C59.2764 53.1937 56.9587 50.8759 56.9587 48.0258C56.9587 45.1757 59.2765 42.858 62.1266 42.858C64.9767 42.858 67.2945 45.1758 67.2945 48.0258C67.2945 50.8759 64.9767 53.1937 62.1266 53.1937Z" fill="#EE1F23"/>
<path d="M77.4249 33.115L65.797 15.0271C65.5593 14.6576 65.1497 14.4341 64.7104 14.4341H50.4986C49.7841 14.4341 49.2067 15.0129 49.2067 15.726V48.0256C49.2067 48.7401 49.7841 49.3176 50.4986 49.3176H55.6665V46.7335H51.7905V17.0181H64.005L75.0463 34.1938V46.7339H68.5863V49.3177H76.3382C77.0527 49.3177 77.6302 48.7403 77.6302 48.0258V33.8139C77.6303 33.5671 77.5593 33.3229 77.4249 33.115Z" fill="#EE1F23"/>
<path d="M56.9586 31.2299V22.1861H67.2946V19.6021H55.6667C54.9522 19.6021 54.3748 20.1809 54.3748 20.894V32.5219C54.3748 33.2363 54.9522 33.8138 55.6667 33.8138H75.0465V31.2298H56.9586V31.2299Z" fill="#EE1F23"/>
<path d="M50.4986 5.39026H1.40302C0.689904 5.39026 0.111084 5.96908 0.111084 6.68219V48.0258C0.111084 48.7403 0.689904 49.3178 1.40302 49.3178H11.739V46.7337H2.69511V7.97413H49.2066V46.7337H24.6588V49.3178H50.4986C51.213 49.3178 51.7905 48.7403 51.7905 48.0258V6.68219C51.7905 5.96908 51.213 5.39026 50.4986 5.39026Z" fill="#EE1F23"/>
<path d="M9.155 41.5659H1.40308V44.1499H9.155V41.5659Z" fill="#EE1F23"/>
<path d="M49.2067 41.5659H27.2429V44.1499H49.2067V41.5659Z" fill="#EE1F23"/>
<path d="M76.3383 41.5659H71.1704V44.1499H76.3383V41.5659Z" fill="#EE1F23"/>
<path d="M50.4986 10.5582H5.27905V13.1423H50.4986V10.5582Z" fill="#EE1F23"/>
<path d="M19.4909 46.7338H16.9069V49.3178H19.4909V46.7338Z" fill="#EE1F23"/>
<path d="M63.4186 46.7338H60.8346V49.3178H63.4186V46.7338Z" fill="#EE1F23"/>
<path d="M23.3669 0.222168H5.27905V2.80619H23.3669V0.222168Z" fill="#EE1F23"/>
<path d="M2.69511 0.222168H0.111084V2.80619H2.69511V0.222168Z" fill="#EE1F23"/>
</svg>
