<svg width="74" height="74" viewBox="0 0 74 74" fill="none" xmlns="http://www.w3.org/2000/svg">
<path d="M72.8979 45.6397C72.4318 45.4545 71.8997 45.5703 71.5534 45.9329L66.3334 51.4198V18.829H66.3395L71.3201 13.4512C71.7783 12.956 71.7481 12.1822 71.2524 11.724C71.2524 11.724 71.2518 11.7235 71.2513 11.7229L69.4587 10.0545L71.9495 7.3656C72.4072 6.86989 72.3764 6.09668 71.8807 5.63902L66.5029 0.658448C66.0077 0.200227 65.2345 0.22988 64.7763 0.725587L56.0863 10.1088H13.7778C13.7739 6.73506 11.0402 4.00139 7.66647 3.99748H6.44455C3.07083 4.00139 0.337168 6.73506 0.333252 10.1088V62.6644C0.333252 63.3391 0.880432 63.8863 1.55574 63.8863H20.0575L17.4905 66.9685C17.0592 67.4877 17.1297 68.2581 17.6483 68.6895L23.284 73.3819C23.8027 73.8139 24.5737 73.7434 25.0056 73.2247L25.0062 73.2242L31.2618 65.7085C31.6937 65.1882 31.9718 64.5566 32.0635 63.8863H54.4593L47.1138 71.6C46.6489 72.089 46.6684 72.8627 47.1574 73.3277C47.3846 73.5436 47.6862 73.6645 48 73.6639H72.4441C73.1194 73.6639 73.6666 73.1167 73.6666 72.442V46.7754C73.6666 46.2753 73.3622 45.8254 72.8979 45.6397ZM68.6961 12.6752L66.3334 15.2309V13.4333L67.7998 11.8443L68.6961 12.6752ZM63.889 12.4575V12.4749L53.5524 23.6462L49.9627 20.325L62.4147 6.86822L66.0044 10.1893L63.9035 12.4575H63.889ZM51.2048 24.8021L48.3934 25.6223L48.9937 22.7549L51.2048 24.8021ZM65.7358 3.28021L69.3238 6.59966L67.6633 8.3973L64.0747 5.07449L65.7358 3.28021ZM6.44455 6.44189H7.66647C9.69182 6.44189 11.3334 8.08343 11.3334 10.1088V56.585C10.2815 55.7759 8.99302 55.3351 7.66647 55.3306H6.44455C5.11744 55.3351 3.8295 55.7759 2.77766 56.585V10.1088C2.77766 8.08343 4.4192 6.44189 6.44455 6.44189ZM6.44455 57.775H7.66647C9.69182 57.775 11.3334 59.4171 11.3334 61.4419H2.77766C2.77766 59.4171 4.4192 57.775 6.44455 57.775ZM29.3842 64.1453L28.602 65.0842L24.845 61.9566L25.6261 61.0167C26.058 60.498 26.8284 60.4275 27.3471 60.8595C27.3476 60.8595 27.3476 60.86 27.3482 60.86L29.2264 62.4199C29.7456 62.8512 29.8166 63.6217 29.3853 64.1409C29.3847 64.1414 29.3847 64.1414 29.3842 64.142V64.1453ZM23.9101 70.721L20.1526 67.5935L23.2807 63.8348L27.0377 66.9629L23.9101 70.721ZM31.5499 61.4419C31.3468 61.1034 31.09 60.8007 30.7896 60.545L28.9114 58.9818C27.3549 57.686 25.0431 57.897 23.7473 59.4535L22.089 61.4419H13.7778V12.5532H53.8249L47.3387 19.5625C47.2458 19.6671 47.172 19.7879 47.1211 19.9183C47.1065 19.9535 47.0953 19.9866 47.083 20.0235C47.0713 20.0598 47.0528 20.0968 47.0439 20.1359L45.5847 27.1122C45.4471 27.773 45.8712 28.4203 46.5319 28.5579C46.7283 28.5988 46.9314 28.5909 47.1233 28.535L53.9681 26.5404C54 26.5303 54.0268 26.5119 54.0571 26.5012C54.0878 26.4901 54.1197 26.4744 54.1527 26.4582C54.2898 26.3961 54.414 26.3082 54.5192 26.2002L63.889 16.074V53.9861L56.7879 61.4419H31.5499ZM71.2222 71.2195H50.8512L71.2222 49.8308V71.2195Z" fill="#EE1F23"/>
<path d="M57.8708 68.0209C58.0599 68.4774 58.5059 68.7751 59.0004 68.7751H67.5556C68.2309 68.7751 68.7781 68.2279 68.7781 67.5531V58.9974C68.7781 58.3221 68.2303 57.7755 67.5556 57.7755C67.2316 57.7755 66.9206 57.9042 66.6917 58.1336L58.136 66.6887C57.7864 67.0384 57.6817 67.5643 57.8708 68.0209ZM66.3337 61.9476V66.3307H61.9506L66.3337 61.9476Z" fill="#EE1F23"/>
<path d="M54.1109 46.7755H45.5558V33.331C45.5541 33.0065 45.4249 32.6954 45.196 32.4654L37.8628 25.1322C37.3856 24.655 36.6118 24.655 36.1346 25.1322L28.8013 32.4654C28.5736 32.696 28.4455 33.007 28.4444 33.331V46.7755H19.8892C19.2139 46.7755 18.6667 47.3227 18.6667 47.9974C18.6667 48.6727 19.2139 49.2199 19.8892 49.2199H54.1115C54.7862 49.2199 55.3334 48.6727 55.3334 47.9974C55.3334 47.3227 54.7862 46.7755 54.1109 46.7755ZM37.0001 27.7255L41.3831 32.1085H32.617L37.0001 27.7255ZM30.8888 34.5529H43.1114V46.7755H30.8888V34.5529Z" fill="#EE1F23"/>
<path d="M35.7773 19.8865H38.2223V22.3309H35.7773V19.8865Z" fill="#EE1F23"/>
<path d="M35.7773 51.6642H38.2223V54.1086H35.7773V51.6642Z" fill="#EE1F23"/>
</svg>
