<svg width="80" height="80" viewBox="0 0 80 80" fill="none" xmlns="http://www.w3.org/2000/svg">
<path d="M80 40C80 39.4176 79.6758 38.8835 79.1588 38.6146L64.0864 30.776L79.1588 22.9373C79.6758 22.6684 80 22.1343 80 21.5519C80 20.9696 79.6758 20.4355 79.1588 20.1665L66.1766 13.4149C65.4105 13.0168 64.4675 13.3143 64.0692 14.0794C63.6709 14.8445 63.9684 15.7876 64.7341 16.1857L75.0523 21.5518L40 39.7813L4.94766 21.5518L40 3.32222L52.2605 9.69843C53.0266 10.0965 53.9695 9.79885 54.3678 9.03392C54.7661 8.26883 54.4684 7.3257 53.703 6.92762L40.7212 0.17628C40.2689 -0.0587599 39.7309 -0.0587599 39.2788 0.17628L0.84125 20.1664C0.324219 20.4351 0 20.9693 0 21.5518C0 22.1343 0.324219 22.6683 0.84125 22.9372L15.9136 30.7758L0.84125 38.6146C0.324219 38.8835 0 39.4176 0 40C0 40.5823 0.324219 41.1165 0.84125 41.3854L15.9136 49.224L0.84125 57.0628C0.324219 57.3317 0 57.8658 0 58.4482C0 59.0305 0.324219 59.5647 0.84125 59.8336L39.2788 79.8237C39.5048 79.9411 39.7523 80 40 80C40.2477 80 40.4952 79.9413 40.7212 79.8237L79.1588 59.8336C79.6758 59.5647 80 59.0305 80 58.4482C80 57.8658 79.6758 57.3317 79.1588 57.0628L64.0864 49.224L79.1588 41.3854C79.6758 41.1165 80 40.5823 80 40ZM40.7212 42.9273L60.7011 32.5363L65.3595 34.959L30.363 53.2176L24.1283 49.9752L38.4794 42.5117L39.2786 42.9273C39.5047 43.0447 39.7522 43.1036 39.9998 43.1036C40.2475 43.1036 40.4952 43.0447 40.7212 42.9273ZM35.0942 40.751L20.743 48.2145L14.538 44.9875L28.8892 37.524L35.0942 40.751ZM19.2989 32.5363L25.5039 35.7635L11.1527 43.227L4.9475 39.9998L19.2989 32.5363ZM75.0523 58.4482L40 76.6777L4.94766 58.4482L19.2989 50.9847L39.2788 61.3756C39.5048 61.4931 39.7523 61.5519 40 61.5519C40.2477 61.5519 40.4952 61.4932 40.7212 61.3756L60.7011 50.9847L75.0523 58.4482ZM40 58.2295L33.7448 54.9765L68.7416 36.718L75.0523 40L40 58.2295Z" fill="#F8F8F8"/>
<path d="M59.2189 13.1184C59.6298 13.1184 60.0329 12.9513 60.3234 12.6609C60.614 12.3704 60.7814 11.9675 60.7814 11.5567C60.7814 11.146 60.6142 10.7431 60.3234 10.4526C60.0329 10.1621 59.6298 9.995 59.2189 9.995C58.8079 9.995 58.4048 10.1621 58.1142 10.4526C57.8236 10.7431 57.6564 11.146 57.6564 11.5567C57.6564 11.9675 57.8234 12.3704 58.1142 12.6609C58.405 12.9513 58.8079 13.1184 59.2189 13.1184Z" fill="#F8F8F8"/>
</svg>
